<mxfile host="Electron" modified="2025-02-04T16:27:22.789Z" agent="Mozilla/5.0 (Macintosh; Intel Mac OS X 10_15_7) AppleWebKit/537.36 (KHTML, like Gecko) draw.io/22.1.2 Chrome/114.0.5735.289 Electron/25.9.4 Safari/537.36" etag="nMkEQNAIpkVYWdPHWMQg" version="22.1.2" type="device">
  <diagram name="Page-1" id="NJPWzTDh_QYS_qL_PLhn">
    <mxGraphModel dx="1848" dy="2431" grid="1" gridSize="10" guides="1" tooltips="1" connect="1" arrows="1" fold="1" page="1" pageScale="1" pageWidth="827" pageHeight="1169" math="0" shadow="0">
      <root>
        <mxCell id="0" />
        <mxCell id="1" parent="0" />
        <mxCell id="Gj9VxU12owduN0ynIQGK-17" value="&lt;font style=&quot;font-size: 10px;&quot;&gt;FEE RECORDS&lt;br&gt;AND PAYMENTS MATCH?&lt;br&gt;&lt;/font&gt;" style="rhombus;whiteSpace=wrap;html=1;labelBackgroundColor=none;fillColor=#CCCCCC;fontColor=default;" vertex="1" parent="1">
          <mxGeometry x="330" y="-1061.25" width="110" height="110" as="geometry" />
        </mxCell>
        <mxCell id="Gj9VxU12owduN0ynIQGK-3" value="" style="ellipse;fillColor=strokeColor;html=1;" vertex="1" parent="1">
          <mxGeometry x="94.43" y="-1160" width="30" height="30" as="geometry" />
        </mxCell>
        <mxCell id="Gj9VxU12owduN0ynIQGK-4" value="&lt;font color=&quot;#6600cc&quot;&gt;TO DO&lt;/font&gt;" style="html=1;align=center;verticalAlign=middle;rounded=1;absoluteArcSize=1;arcSize=10;dashed=0;whiteSpace=wrap;" vertex="1" parent="1">
          <mxGeometry x="49.43000000000001" y="-1040" width="120" height="67.5" as="geometry" />
        </mxCell>
        <mxCell id="Gj9VxU12owduN0ynIQGK-5" value="" style="endArrow=classic;html=1;rounded=0;exitX=0.5;exitY=1;exitDx=0;exitDy=0;entryX=0.5;entryY=0;entryDx=0;entryDy=0;edgeStyle=orthogonalEdgeStyle;" edge="1" parent="1" source="Gj9VxU12owduN0ynIQGK-3" target="Gj9VxU12owduN0ynIQGK-4">
          <mxGeometry width="50" height="50" relative="1" as="geometry">
            <mxPoint x="230" y="-1250" as="sourcePoint" />
            <mxPoint x="270" y="-1205" as="targetPoint" />
          </mxGeometry>
        </mxCell>
        <mxCell id="Gj9VxU12owduN0ynIQGK-6" value="&lt;font color=&quot;#00994d&quot;&gt;FEE RECORD&lt;br&gt;INITIALISED&lt;br&gt;&lt;/font&gt;" style="edgeLabel;html=1;align=center;verticalAlign=middle;resizable=0;points=[];" vertex="1" connectable="0" parent="Gj9VxU12owduN0ynIQGK-5">
          <mxGeometry x="-0.0846" y="3" relative="1" as="geometry">
            <mxPoint x="-3" y="-2" as="offset" />
          </mxGeometry>
        </mxCell>
        <mxCell id="Gj9VxU12owduN0ynIQGK-59" style="edgeStyle=orthogonalEdgeStyle;rounded=0;orthogonalLoop=1;jettySize=auto;html=1;exitX=0;exitY=0.5;exitDx=0;exitDy=0;entryX=0;entryY=0.5;entryDx=0;entryDy=0;" edge="1" parent="1" source="Gj9VxU12owduN0ynIQGK-79" target="Gj9VxU12owduN0ynIQGK-17">
          <mxGeometry relative="1" as="geometry">
            <mxPoint x="330" y="-980" as="targetPoint" />
            <Array as="points">
              <mxPoint x="270" y="-735" />
              <mxPoint x="270" y="-1006" />
            </Array>
          </mxGeometry>
        </mxCell>
        <mxCell id="Gj9VxU12owduN0ynIQGK-60" value="&lt;span style=&quot;color: rgb(0, 153, 77);&quot;&gt;OTHER FEE&lt;br&gt;REMOVED&lt;br&gt;FROM PAYMENT&lt;br&gt;GROUP&lt;br&gt;&lt;/span&gt;" style="edgeLabel;html=1;align=center;verticalAlign=middle;resizable=0;points=[];" vertex="1" connectable="0" parent="Gj9VxU12owduN0ynIQGK-59">
          <mxGeometry x="-0.1151" y="1" relative="1" as="geometry">
            <mxPoint x="-1" y="79" as="offset" />
          </mxGeometry>
        </mxCell>
        <mxCell id="Gj9VxU12owduN0ynIQGK-63" style="edgeStyle=orthogonalEdgeStyle;rounded=0;orthogonalLoop=1;jettySize=auto;html=1;exitX=0.25;exitY=1;exitDx=0;exitDy=0;entryX=1;entryY=0.5;entryDx=0;entryDy=0;" edge="1" parent="1" source="Gj9VxU12owduN0ynIQGK-8" target="Gj9VxU12owduN0ynIQGK-85">
          <mxGeometry relative="1" as="geometry">
            <mxPoint x="1069.93" y="-1033.17" as="targetPoint" />
            <mxPoint x="949.8600000000004" y="-972.545" as="sourcePoint" />
            <Array as="points">
              <mxPoint x="690" y="-868" />
            </Array>
          </mxGeometry>
        </mxCell>
        <mxCell id="Gj9VxU12owduN0ynIQGK-64" value="&lt;font style=&quot;border-color: var(--border-color);&quot; color=&quot;#00994d&quot;&gt;PAYMENT&lt;/font&gt;&lt;br style=&quot;border-color: var(--border-color); color: rgb(0, 153, 77);&quot;&gt;&lt;span style=&quot;border-color: var(--border-color); color: rgb(0, 153, 77);&quot;&gt;DELETED&lt;/span&gt;" style="edgeLabel;html=1;align=center;verticalAlign=middle;resizable=0;points=[];" vertex="1" connectable="0" parent="Gj9VxU12owduN0ynIQGK-63">
          <mxGeometry x="-0.0033" relative="1" as="geometry">
            <mxPoint y="-43" as="offset" />
          </mxGeometry>
        </mxCell>
        <mxCell id="Gj9VxU12owduN0ynIQGK-65" style="edgeStyle=orthogonalEdgeStyle;rounded=0;orthogonalLoop=1;jettySize=auto;html=1;exitX=0.75;exitY=1;exitDx=0;exitDy=0;entryX=0.5;entryY=0;entryDx=0;entryDy=0;" edge="1" parent="1" source="Gj9VxU12owduN0ynIQGK-8" target="Gj9VxU12owduN0ynIQGK-35">
          <mxGeometry relative="1" as="geometry">
            <mxPoint x="797.5000000000002" y="-951.25" as="sourcePoint" />
            <mxPoint x="719.9999999999998" y="-756.25" as="targetPoint" />
            <Array as="points">
              <mxPoint x="750" y="-790" />
            </Array>
          </mxGeometry>
        </mxCell>
        <mxCell id="Gj9VxU12owduN0ynIQGK-66" value="&lt;font color=&quot;#00994d&quot;&gt;REMOVE FROM&lt;br style=&quot;border-color: var(--border-color);&quot;&gt;PAYMENT GROUP&lt;/font&gt;" style="edgeLabel;html=1;align=center;verticalAlign=middle;resizable=0;points=[];" vertex="1" connectable="0" parent="Gj9VxU12owduN0ynIQGK-65">
          <mxGeometry x="-0.7641" y="1" relative="1" as="geometry">
            <mxPoint x="-1" y="52" as="offset" />
          </mxGeometry>
        </mxCell>
        <mxCell id="Gj9VxU12owduN0ynIQGK-67" style="edgeStyle=orthogonalEdgeStyle;rounded=0;orthogonalLoop=1;jettySize=auto;html=1;exitX=0.25;exitY=0;exitDx=0;exitDy=0;entryX=0.5;entryY=0;entryDx=0;entryDy=0;" edge="1" parent="1" source="Gj9VxU12owduN0ynIQGK-8" target="Gj9VxU12owduN0ynIQGK-17">
          <mxGeometry relative="1" as="geometry">
            <Array as="points">
              <mxPoint x="690" y="-1130" />
              <mxPoint x="385" y="-1130" />
            </Array>
          </mxGeometry>
        </mxCell>
        <mxCell id="Gj9VxU12owduN0ynIQGK-68" value="&lt;font color=&quot;#00994d&quot;&gt;OTHER FEE&lt;br style=&quot;border-color: var(--border-color);&quot;&gt;ADDED/REMOVED&lt;br style=&quot;border-color: var(--border-color);&quot;&gt;FROM PAYMENT&lt;br style=&quot;border-color: var(--border-color);&quot;&gt;GROUP&lt;/font&gt;" style="edgeLabel;html=1;align=center;verticalAlign=middle;resizable=0;points=[];" vertex="1" connectable="0" parent="Gj9VxU12owduN0ynIQGK-67">
          <mxGeometry x="0.0533" y="-1" relative="1" as="geometry">
            <mxPoint x="140" y="46" as="offset" />
          </mxGeometry>
        </mxCell>
        <mxCell id="Gj9VxU12owduN0ynIQGK-8" value="&lt;font color=&quot;#6600cc&quot;&gt;DOES NOT MATCH&lt;/font&gt;" style="html=1;align=center;verticalAlign=middle;rounded=1;absoluteArcSize=1;arcSize=10;dashed=0;whiteSpace=wrap;" vertex="1" parent="1">
          <mxGeometry x="660.0000000000001" y="-1040" width="120" height="67.5" as="geometry" />
        </mxCell>
        <mxCell id="Gj9VxU12owduN0ynIQGK-12" value="&lt;font color=&quot;#6600cc&quot;&gt;PENDING CORRECTION&lt;/font&gt;" style="html=1;align=center;verticalAlign=middle;rounded=1;absoluteArcSize=1;arcSize=10;dashed=0;whiteSpace=wrap;" vertex="1" parent="1">
          <mxGeometry x="49.43000000000001" y="-890" width="120" height="67.5" as="geometry" />
        </mxCell>
        <mxCell id="Gj9VxU12owduN0ynIQGK-13" value="&lt;font color=&quot;#6600cc&quot;&gt;TO DO AMENDED&lt;/font&gt;" style="html=1;align=center;verticalAlign=middle;rounded=1;absoluteArcSize=1;arcSize=10;dashed=0;whiteSpace=wrap;" vertex="1" parent="1">
          <mxGeometry x="49.43000000000001" y="-720" width="120" height="67.5" as="geometry" />
        </mxCell>
        <mxCell id="Gj9VxU12owduN0ynIQGK-15" value="" style="endArrow=classic;html=1;rounded=0;exitX=1;exitY=0.5;exitDx=0;exitDy=0;edgeStyle=orthogonalEdgeStyle;entryX=0;entryY=0.5;entryDx=0;entryDy=0;" edge="1" parent="1" source="Gj9VxU12owduN0ynIQGK-4" target="Gj9VxU12owduN0ynIQGK-17">
          <mxGeometry width="50" height="50" relative="1" as="geometry">
            <mxPoint x="186.42999999999995" y="-1060" as="sourcePoint" />
            <mxPoint x="109.43" y="-1100" as="targetPoint" />
          </mxGeometry>
        </mxCell>
        <mxCell id="Gj9VxU12owduN0ynIQGK-16" value="&lt;font color=&quot;#00994d&quot;&gt;PAYMENT&lt;br&gt;ADDED&lt;br&gt;&lt;/font&gt;" style="edgeLabel;html=1;align=center;verticalAlign=middle;resizable=0;points=[];" vertex="1" connectable="0" parent="Gj9VxU12owduN0ynIQGK-15">
          <mxGeometry x="-0.0766" relative="1" as="geometry">
            <mxPoint x="-38" as="offset" />
          </mxGeometry>
        </mxCell>
        <mxCell id="Gj9VxU12owduN0ynIQGK-18" style="edgeStyle=orthogonalEdgeStyle;rounded=0;orthogonalLoop=1;jettySize=auto;html=1;entryX=0.25;entryY=0;entryDx=0;entryDy=0;exitX=0;exitY=1;exitDx=0;exitDy=0;" edge="1" parent="1" source="Gj9VxU12owduN0ynIQGK-17" target="Gj9VxU12owduN0ynIQGK-79">
          <mxGeometry relative="1" as="geometry">
            <mxPoint x="370" y="-1080" as="sourcePoint" />
            <Array as="points">
              <mxPoint x="354" y="-979" />
            </Array>
          </mxGeometry>
        </mxCell>
        <mxCell id="Gj9VxU12owduN0ynIQGK-19" value="YES" style="edgeLabel;html=1;align=center;verticalAlign=middle;resizable=0;points=[];" vertex="1" connectable="0" parent="Gj9VxU12owduN0ynIQGK-18">
          <mxGeometry x="-0.1528" relative="1" as="geometry">
            <mxPoint x="-1" y="-64" as="offset" />
          </mxGeometry>
        </mxCell>
        <mxCell id="Gj9VxU12owduN0ynIQGK-20" style="edgeStyle=orthogonalEdgeStyle;rounded=0;orthogonalLoop=1;jettySize=auto;html=1;exitX=1;exitY=0.5;exitDx=0;exitDy=0;entryX=0;entryY=0.5;entryDx=0;entryDy=0;" edge="1" parent="1" source="Gj9VxU12owduN0ynIQGK-17" target="Gj9VxU12owduN0ynIQGK-8">
          <mxGeometry relative="1" as="geometry">
            <mxPoint x="422.5" y="-883.75" as="sourcePoint" />
            <mxPoint x="610" y="-960" as="targetPoint" />
            <Array as="points">
              <mxPoint x="490" y="-1006" />
              <mxPoint x="490" y="-1006" />
            </Array>
          </mxGeometry>
        </mxCell>
        <mxCell id="Gj9VxU12owduN0ynIQGK-21" value="NO" style="edgeLabel;html=1;align=center;verticalAlign=middle;resizable=0;points=[];" vertex="1" connectable="0" parent="Gj9VxU12owduN0ynIQGK-20">
          <mxGeometry x="-0.8872" y="1" relative="1" as="geometry">
            <mxPoint x="7" y="1" as="offset" />
          </mxGeometry>
        </mxCell>
        <mxCell id="Gj9VxU12owduN0ynIQGK-22" value="" style="endArrow=classic;html=1;rounded=0;exitX=0.5;exitY=1;exitDx=0;exitDy=0;edgeStyle=orthogonalEdgeStyle;fontColor=#00994D;entryX=0.5;entryY=0;entryDx=0;entryDy=0;" edge="1" parent="1" source="Gj9VxU12owduN0ynIQGK-4" target="Gj9VxU12owduN0ynIQGK-12">
          <mxGeometry width="50" height="50" relative="1" as="geometry">
            <mxPoint x="296.42999999999995" y="-980" as="sourcePoint" />
            <mxPoint x="109.43" y="-870" as="targetPoint" />
          </mxGeometry>
        </mxCell>
        <mxCell id="Gj9VxU12owduN0ynIQGK-23" value="&lt;font color=&quot;#00994d&quot;&gt;CORRECTION&lt;br&gt;REQUESTED&lt;/font&gt;" style="edgeLabel;html=1;align=center;verticalAlign=middle;resizable=0;points=[];" vertex="1" connectable="0" parent="Gj9VxU12owduN0ynIQGK-22">
          <mxGeometry x="-0.0766" relative="1" as="geometry">
            <mxPoint as="offset" />
          </mxGeometry>
        </mxCell>
        <mxCell id="Gj9VxU12owduN0ynIQGK-26" value="" style="endArrow=classic;html=1;rounded=0;exitX=0.5;exitY=1;exitDx=0;exitDy=0;edgeStyle=orthogonalEdgeStyle;fontColor=#00994D;entryX=0.5;entryY=0;entryDx=0;entryDy=0;" edge="1" parent="1" source="Gj9VxU12owduN0ynIQGK-12" target="Gj9VxU12owduN0ynIQGK-13">
          <mxGeometry width="50" height="50" relative="1" as="geometry">
            <mxPoint x="176.43" y="-810" as="sourcePoint" />
            <mxPoint x="106.43" y="-730" as="targetPoint" />
          </mxGeometry>
        </mxCell>
        <mxCell id="Gj9VxU12owduN0ynIQGK-27" value="&lt;font color=&quot;#00994d&quot;&gt;CORRECTION&lt;br&gt;RECEIVED&lt;/font&gt;" style="edgeLabel;html=1;align=center;verticalAlign=middle;resizable=0;points=[];" vertex="1" connectable="0" parent="Gj9VxU12owduN0ynIQGK-26">
          <mxGeometry x="-0.0766" relative="1" as="geometry">
            <mxPoint as="offset" />
          </mxGeometry>
        </mxCell>
        <mxCell id="Gj9VxU12owduN0ynIQGK-32" style="edgeStyle=orthogonalEdgeStyle;rounded=0;orthogonalLoop=1;jettySize=auto;html=1;exitX=0.5;exitY=1;exitDx=0;exitDy=0;entryX=0;entryY=0.5;entryDx=0;entryDy=0;" edge="1" parent="1" source="Gj9VxU12owduN0ynIQGK-85" target="Gj9VxU12owduN0ynIQGK-35">
          <mxGeometry relative="1" as="geometry">
            <mxPoint x="770" y="-795" as="targetPoint" />
            <mxPoint x="220" y="-1574" as="sourcePoint" />
            <Array as="points">
              <mxPoint x="595" y="-735" />
            </Array>
          </mxGeometry>
        </mxCell>
        <mxCell id="Gj9VxU12owduN0ynIQGK-33" value="NO" style="edgeLabel;html=1;align=center;verticalAlign=middle;resizable=0;points=[];" vertex="1" connectable="0" parent="Gj9VxU12owduN0ynIQGK-32">
          <mxGeometry x="-0.8872" y="1" relative="1" as="geometry">
            <mxPoint x="-1" y="9" as="offset" />
          </mxGeometry>
        </mxCell>
        <mxCell id="Gj9VxU12owduN0ynIQGK-36" style="edgeStyle=orthogonalEdgeStyle;rounded=0;orthogonalLoop=1;jettySize=auto;html=1;exitX=0;exitY=1;exitDx=0;exitDy=0;entryX=0.5;entryY=1;entryDx=0;entryDy=0;" edge="1" parent="1" source="Gj9VxU12owduN0ynIQGK-35" target="Gj9VxU12owduN0ynIQGK-13">
          <mxGeometry relative="1" as="geometry">
            <mxPoint x="52.39000000000004" y="-526.25" as="targetPoint" />
            <mxPoint x="607.8899999999999" y="-690" as="sourcePoint" />
            <Array as="points">
              <mxPoint x="723" y="-270" />
              <mxPoint x="109" y="-270" />
            </Array>
          </mxGeometry>
        </mxCell>
        <mxCell id="Gj9VxU12owduN0ynIQGK-37" value="YES" style="edgeLabel;html=1;align=center;verticalAlign=middle;resizable=0;points=[];" vertex="1" connectable="0" parent="Gj9VxU12owduN0ynIQGK-36">
          <mxGeometry x="-0.95" relative="1" as="geometry">
            <mxPoint x="-1" y="3" as="offset" />
          </mxGeometry>
        </mxCell>
        <mxCell id="Gj9VxU12owduN0ynIQGK-91" style="edgeStyle=orthogonalEdgeStyle;rounded=0;orthogonalLoop=1;jettySize=auto;html=1;exitX=1;exitY=1;exitDx=0;exitDy=0;entryX=0;entryY=0.5;entryDx=0;entryDy=0;" edge="1" parent="1" source="Gj9VxU12owduN0ynIQGK-35" target="Gj9VxU12owduN0ynIQGK-4">
          <mxGeometry relative="1" as="geometry">
            <Array as="points">
              <mxPoint x="778" y="-640" />
              <mxPoint x="778" y="-240" />
              <mxPoint x="10" y="-240" />
              <mxPoint x="10" y="-1006" />
            </Array>
          </mxGeometry>
        </mxCell>
        <mxCell id="Gj9VxU12owduN0ynIQGK-92" value="NO" style="edgeLabel;html=1;align=center;verticalAlign=middle;resizable=0;points=[];" vertex="1" connectable="0" parent="Gj9VxU12owduN0ynIQGK-91">
          <mxGeometry x="-0.9715" y="1" relative="1" as="geometry">
            <mxPoint x="-2" y="10" as="offset" />
          </mxGeometry>
        </mxCell>
        <mxCell id="Gj9VxU12owduN0ynIQGK-35" value="&lt;font style=&quot;font-size: 10px;&quot;&gt;HAS&lt;br&gt;CORRECTIONS?&lt;br&gt;&lt;/font&gt;" style="rhombus;whiteSpace=wrap;html=1;labelBackgroundColor=none;fillColor=#CCCCCC;fontColor=default;" vertex="1" parent="1">
          <mxGeometry x="695.9299999999998" y="-790" width="110" height="110" as="geometry" />
        </mxCell>
        <mxCell id="Gj9VxU12owduN0ynIQGK-49" value="* A FEE RECORD CAN BE AUTO-RECONCILED IF:&lt;br&gt;- Fees paid to UKEF for the period is zero&lt;br&gt;- Fixed fee adjustment is zero&lt;br&gt;- Principal balance adjustment is zero" style="text;html=1;strokeColor=none;fillColor=none;align=left;verticalAlign=top;whiteSpace=wrap;rounded=0;" vertex="1" parent="1">
          <mxGeometry x="340" y="-180" width="447" height="110" as="geometry" />
        </mxCell>
        <mxCell id="Gj9VxU12owduN0ynIQGK-57" value="" style="endArrow=classic;html=1;rounded=0;exitX=1;exitY=0.5;exitDx=0;exitDy=0;edgeStyle=orthogonalEdgeStyle;entryX=0;entryY=0.5;entryDx=0;entryDy=0;" edge="1" parent="1" source="Gj9VxU12owduN0ynIQGK-79" target="Gj9VxU12owduN0ynIQGK-35">
          <mxGeometry width="50" height="50" relative="1" as="geometry">
            <mxPoint x="430" y="-806.875" as="sourcePoint" />
            <mxPoint x="604.9299999999998" y="-850" as="targetPoint" />
            <Array as="points">
              <mxPoint x="490" y="-735" />
              <mxPoint x="490" y="-735" />
            </Array>
          </mxGeometry>
        </mxCell>
        <mxCell id="Gj9VxU12owduN0ynIQGK-58" value="&lt;font color=&quot;#00994d&quot;&gt;REMOVE FROM&lt;br&gt;PAYMENT GROUP&lt;br&gt;&lt;/font&gt;" style="edgeLabel;html=1;align=center;verticalAlign=middle;resizable=0;points=[];" vertex="1" connectable="0" parent="Gj9VxU12owduN0ynIQGK-57">
          <mxGeometry x="-0.0766" relative="1" as="geometry">
            <mxPoint x="-49" as="offset" />
          </mxGeometry>
        </mxCell>
        <mxCell id="Gj9VxU12owduN0ynIQGK-61" value="" style="endArrow=classic;html=1;rounded=0;exitX=0.75;exitY=0;exitDx=0;exitDy=0;edgeStyle=orthogonalEdgeStyle;entryX=0.5;entryY=0;entryDx=0;entryDy=0;" edge="1" parent="1" source="Gj9VxU12owduN0ynIQGK-8" target="Gj9VxU12owduN0ynIQGK-17">
          <mxGeometry width="50" height="50" relative="1" as="geometry">
            <mxPoint x="219.92999999999995" y="-1060" as="sourcePoint" />
            <mxPoint x="219.92999999999995" y="-1160" as="targetPoint" />
            <Array as="points">
              <mxPoint x="750" y="-1130" />
              <mxPoint x="385" y="-1130" />
            </Array>
          </mxGeometry>
        </mxCell>
        <mxCell id="Gj9VxU12owduN0ynIQGK-62" value="&lt;font color=&quot;#00994d&quot;&gt;PAYMENT&lt;br&gt;ADDED/&lt;br&gt;EDITED&lt;br&gt;&lt;/font&gt;" style="edgeLabel;html=1;align=center;verticalAlign=middle;resizable=0;points=[];" vertex="1" connectable="0" parent="Gj9VxU12owduN0ynIQGK-61">
          <mxGeometry x="-0.0766" relative="1" as="geometry">
            <mxPoint x="154" y="44" as="offset" />
          </mxGeometry>
        </mxCell>
        <mxCell id="Gj9VxU12owduN0ynIQGK-83" style="edgeStyle=orthogonalEdgeStyle;rounded=0;orthogonalLoop=1;jettySize=auto;html=1;entryX=0.5;entryY=0;entryDx=0;entryDy=0;exitX=0.5;exitY=1;exitDx=0;exitDy=0;" edge="1" parent="1" source="Gj9VxU12owduN0ynIQGK-79" target="Gj9VxU12owduN0ynIQGK-99">
          <mxGeometry relative="1" as="geometry">
            <mxPoint x="429" y="-670" as="sourcePoint" />
            <mxPoint x="459" y="-600" as="targetPoint" />
            <Array as="points">
              <mxPoint x="384" y="-630" />
              <mxPoint x="384" y="-630" />
            </Array>
          </mxGeometry>
        </mxCell>
        <mxCell id="Gj9VxU12owduN0ynIQGK-84" value="&lt;font color=&quot;#00994d&quot;&gt;GENERATE&lt;br style=&quot;border-color: var(--border-color);&quot;&gt;KEYING DATA&lt;/font&gt;" style="edgeLabel;html=1;align=center;verticalAlign=middle;resizable=0;points=[];" vertex="1" connectable="0" parent="Gj9VxU12owduN0ynIQGK-83">
          <mxGeometry x="-0.6157" y="-1" relative="1" as="geometry">
            <mxPoint x="1" y="12" as="offset" />
          </mxGeometry>
        </mxCell>
        <mxCell id="Gj9VxU12owduN0ynIQGK-89" style="edgeStyle=orthogonalEdgeStyle;rounded=0;orthogonalLoop=1;jettySize=auto;html=1;exitX=0.75;exitY=0;exitDx=0;exitDy=0;entryX=0;entryY=0.5;entryDx=0;entryDy=0;" edge="1" parent="1" source="Gj9VxU12owduN0ynIQGK-79" target="Gj9VxU12owduN0ynIQGK-85">
          <mxGeometry relative="1" as="geometry">
            <Array as="points">
              <mxPoint x="414" y="-868" />
            </Array>
          </mxGeometry>
        </mxCell>
        <mxCell id="Gj9VxU12owduN0ynIQGK-90" value="&lt;font color=&quot;#00994d&quot;&gt;&lt;font style=&quot;border-color: var(--border-color);&quot;&gt;PAYMENT&lt;/font&gt;&lt;br style=&quot;border-color: var(--border-color);&quot;&gt;&lt;span style=&quot;border-color: var(--border-color);&quot;&gt;DELETED&lt;/span&gt;&lt;/font&gt;" style="edgeLabel;html=1;align=center;verticalAlign=middle;resizable=0;points=[];" vertex="1" connectable="0" parent="Gj9VxU12owduN0ynIQGK-89">
          <mxGeometry x="-0.687" relative="1" as="geometry">
            <mxPoint y="-9" as="offset" />
          </mxGeometry>
        </mxCell>
        <mxCell id="Gj9VxU12owduN0ynIQGK-124" style="edgeStyle=orthogonalEdgeStyle;rounded=0;orthogonalLoop=1;jettySize=auto;html=1;exitX=0.5;exitY=0;exitDx=0;exitDy=0;entryX=0.5;entryY=1;entryDx=0;entryDy=0;" edge="1" parent="1" source="Gj9VxU12owduN0ynIQGK-79" target="Gj9VxU12owduN0ynIQGK-17">
          <mxGeometry relative="1" as="geometry" />
        </mxCell>
        <mxCell id="Gj9VxU12owduN0ynIQGK-125" value="&lt;font color=&quot;#00994d&quot;&gt;&lt;font style=&quot;border-color: var(--border-color);&quot;&gt;PAYMENT&lt;/font&gt;&lt;br style=&quot;border-color: var(--border-color);&quot;&gt;EDITED&lt;/font&gt;" style="edgeLabel;html=1;align=center;verticalAlign=middle;resizable=0;points=[];" vertex="1" connectable="0" parent="Gj9VxU12owduN0ynIQGK-124">
          <mxGeometry x="0.3937" y="-1" relative="1" as="geometry">
            <mxPoint x="-1" y="-4" as="offset" />
          </mxGeometry>
        </mxCell>
        <mxCell id="Gj9VxU12owduN0ynIQGK-79" value="&lt;font color=&quot;#6600cc&quot;&gt;MATCH&lt;/font&gt;" style="html=1;align=center;verticalAlign=middle;rounded=1;absoluteArcSize=1;arcSize=10;dashed=0;whiteSpace=wrap;" vertex="1" parent="1">
          <mxGeometry x="324" y="-768.75" width="120" height="67.5" as="geometry" />
        </mxCell>
        <mxCell id="Gj9VxU12owduN0ynIQGK-86" style="edgeStyle=orthogonalEdgeStyle;rounded=0;orthogonalLoop=1;jettySize=auto;html=1;exitX=0.5;exitY=0;exitDx=0;exitDy=0;entryX=1;entryY=1;entryDx=0;entryDy=0;" edge="1" parent="1" source="Gj9VxU12owduN0ynIQGK-85" target="Gj9VxU12owduN0ynIQGK-17">
          <mxGeometry relative="1" as="geometry">
            <mxPoint x="440" y="-960" as="targetPoint" />
            <Array as="points">
              <mxPoint x="595" y="-979" />
            </Array>
          </mxGeometry>
        </mxCell>
        <mxCell id="Gj9VxU12owduN0ynIQGK-87" value="YES" style="edgeLabel;html=1;align=center;verticalAlign=middle;resizable=0;points=[];" vertex="1" connectable="0" parent="Gj9VxU12owduN0ynIQGK-86">
          <mxGeometry x="-0.8045" relative="1" as="geometry">
            <mxPoint x="-1" y="9" as="offset" />
          </mxGeometry>
        </mxCell>
        <mxCell id="Gj9VxU12owduN0ynIQGK-85" value="&lt;font style=&quot;font-size: 10px;&quot;&gt;HAS ATTACHED&lt;br&gt;PAYMENTS?&lt;br&gt;&lt;/font&gt;" style="rhombus;whiteSpace=wrap;html=1;labelBackgroundColor=none;fillColor=#CCCCCC;fontColor=default;" vertex="1" parent="1">
          <mxGeometry x="540" y="-923" width="110" height="110" as="geometry" />
        </mxCell>
        <mxCell id="Gj9VxU12owduN0ynIQGK-93" value="&lt;font color=&quot;#6600cc&quot;&gt;READY TO KEY&lt;/font&gt;" style="html=1;align=center;verticalAlign=middle;rounded=1;absoluteArcSize=1;arcSize=10;dashed=0;whiteSpace=wrap;" vertex="1" parent="1">
          <mxGeometry x="245.5" y="-407.5" width="120" height="67.5" as="geometry" />
        </mxCell>
        <mxCell id="Gj9VxU12owduN0ynIQGK-94" value="&lt;font color=&quot;#6600cc&quot;&gt;RECONCILED&lt;/font&gt;" style="html=1;align=center;verticalAlign=middle;rounded=1;absoluteArcSize=1;arcSize=10;dashed=0;whiteSpace=wrap;" vertex="1" parent="1">
          <mxGeometry x="490.50000000000045" y="-407.5" width="120" height="67.5" as="geometry" />
        </mxCell>
        <mxCell id="Gj9VxU12owduN0ynIQGK-99" value="&lt;font style=&quot;font-size: 10px;&quot;&gt;IS FINAL FEE&lt;br&gt;RECORD FOR&lt;br&gt;FACILITY?&lt;br&gt;&lt;/font&gt;" style="rhombus;whiteSpace=wrap;html=1;labelBackgroundColor=none;fillColor=#CCCCCC;fontColor=default;" vertex="1" parent="1">
          <mxGeometry x="329" y="-610" width="110" height="110" as="geometry" />
        </mxCell>
        <mxCell id="Gj9VxU12owduN0ynIQGK-100" style="edgeStyle=orthogonalEdgeStyle;rounded=0;orthogonalLoop=1;jettySize=auto;html=1;exitX=0;exitY=1;exitDx=0;exitDy=0;entryX=1;entryY=0.5;entryDx=0;entryDy=0;" edge="1" parent="1" source="Gj9VxU12owduN0ynIQGK-104" target="Gj9VxU12owduN0ynIQGK-94">
          <mxGeometry relative="1" as="geometry">
            <Array as="points">
              <mxPoint x="181" y="-300" />
              <mxPoint x="679" y="-300" />
              <mxPoint x="679" y="-374" />
            </Array>
          </mxGeometry>
        </mxCell>
        <mxCell id="Gj9VxU12owduN0ynIQGK-101" value="YES" style="edgeLabel;html=1;align=center;verticalAlign=middle;resizable=0;points=[];" vertex="1" connectable="0" parent="Gj9VxU12owduN0ynIQGK-100">
          <mxGeometry x="-0.8667" relative="1" as="geometry">
            <mxPoint x="-2" y="-12" as="offset" />
          </mxGeometry>
        </mxCell>
        <mxCell id="Gj9VxU12owduN0ynIQGK-102" style="edgeStyle=orthogonalEdgeStyle;rounded=0;orthogonalLoop=1;jettySize=auto;html=1;exitX=1;exitY=1;exitDx=0;exitDy=0;entryX=0.5;entryY=0;entryDx=0;entryDy=0;" edge="1" parent="1" source="Gj9VxU12owduN0ynIQGK-104" target="Gj9VxU12owduN0ynIQGK-93">
          <mxGeometry relative="1" as="geometry">
            <Array as="points">
              <mxPoint x="236" y="-460" />
              <mxPoint x="306" y="-460" />
              <mxPoint x="306" y="-407" />
            </Array>
          </mxGeometry>
        </mxCell>
        <mxCell id="Gj9VxU12owduN0ynIQGK-103" value="NO" style="edgeLabel;html=1;align=center;verticalAlign=middle;resizable=0;points=[];" vertex="1" connectable="0" parent="Gj9VxU12owduN0ynIQGK-102">
          <mxGeometry x="-0.8076" relative="1" as="geometry">
            <mxPoint y="27" as="offset" />
          </mxGeometry>
        </mxCell>
        <mxCell id="Gj9VxU12owduN0ynIQGK-104" value="&lt;font style=&quot;font-size: 10px;&quot;&gt;ZERO FEES &lt;br&gt;PAID FOR&lt;br&gt;PERIOD?&lt;br&gt;&lt;/font&gt;" style="rhombus;whiteSpace=wrap;html=1;labelBackgroundColor=none;fillColor=#CCCCCC;fontColor=default;verticalAlign=middle;" vertex="1" parent="1">
          <mxGeometry x="153.43000000000006" y="-610" width="110" height="110" as="geometry" />
        </mxCell>
        <mxCell id="Gj9VxU12owduN0ynIQGK-105" style="edgeStyle=orthogonalEdgeStyle;rounded=0;orthogonalLoop=1;jettySize=auto;html=1;exitX=1;exitY=0.5;exitDx=0;exitDy=0;entryX=1;entryY=0.5;entryDx=0;entryDy=0;" edge="1" parent="1" source="Gj9VxU12owduN0ynIQGK-109" target="Gj9VxU12owduN0ynIQGK-94">
          <mxGeometry relative="1" as="geometry">
            <Array as="points">
              <mxPoint x="679" y="-555" />
              <mxPoint x="679" y="-374" />
            </Array>
          </mxGeometry>
        </mxCell>
        <mxCell id="Gj9VxU12owduN0ynIQGK-106" value="YES" style="edgeLabel;html=1;align=center;verticalAlign=middle;resizable=0;points=[];" vertex="1" connectable="0" parent="Gj9VxU12owduN0ynIQGK-105">
          <mxGeometry x="-0.9004" relative="1" as="geometry">
            <mxPoint x="8" as="offset" />
          </mxGeometry>
        </mxCell>
        <mxCell id="Gj9VxU12owduN0ynIQGK-107" style="edgeStyle=orthogonalEdgeStyle;rounded=0;orthogonalLoop=1;jettySize=auto;html=1;exitX=0.5;exitY=1;exitDx=0;exitDy=0;entryX=0.5;entryY=0;entryDx=0;entryDy=0;" edge="1" parent="1" source="Gj9VxU12owduN0ynIQGK-109" target="Gj9VxU12owduN0ynIQGK-93">
          <mxGeometry relative="1" as="geometry">
            <Array as="points">
              <mxPoint x="574" y="-460" />
              <mxPoint x="306" y="-460" />
              <mxPoint x="306" y="-407" />
            </Array>
          </mxGeometry>
        </mxCell>
        <mxCell id="Gj9VxU12owduN0ynIQGK-108" value="NO" style="edgeLabel;html=1;align=center;verticalAlign=middle;resizable=0;points=[];" vertex="1" connectable="0" parent="Gj9VxU12owduN0ynIQGK-107">
          <mxGeometry x="-0.1506" y="-1" relative="1" as="geometry">
            <mxPoint x="113" y="-20" as="offset" />
          </mxGeometry>
        </mxCell>
        <mxCell id="Gj9VxU12owduN0ynIQGK-109" value="&lt;font style=&quot;font-size: 10px;&quot;&gt;CAN FEE&lt;br&gt;RECORD BE AUTO-RECONCILED?*&lt;br&gt;&lt;/font&gt;" style="rhombus;whiteSpace=wrap;html=1;labelBackgroundColor=none;fillColor=#CCCCCC;fontColor=default;verticalAlign=middle;" vertex="1" parent="1">
          <mxGeometry x="519" y="-610" width="110" height="110" as="geometry" />
        </mxCell>
        <mxCell id="Gj9VxU12owduN0ynIQGK-95" style="edgeStyle=orthogonalEdgeStyle;rounded=0;orthogonalLoop=1;jettySize=auto;html=1;exitX=0;exitY=0.5;exitDx=0;exitDy=0;entryX=1;entryY=0.5;entryDx=0;entryDy=0;" edge="1" parent="1" source="Gj9VxU12owduN0ynIQGK-99" target="Gj9VxU12owduN0ynIQGK-104">
          <mxGeometry relative="1" as="geometry">
            <mxPoint x="374" y="-238.75" as="targetPoint" />
          </mxGeometry>
        </mxCell>
        <mxCell id="Gj9VxU12owduN0ynIQGK-96" value="NO" style="edgeLabel;html=1;align=center;verticalAlign=middle;resizable=0;points=[];" vertex="1" connectable="0" parent="Gj9VxU12owduN0ynIQGK-95">
          <mxGeometry x="-0.726" y="-1" relative="1" as="geometry">
            <mxPoint x="-12" y="1" as="offset" />
          </mxGeometry>
        </mxCell>
        <mxCell id="Gj9VxU12owduN0ynIQGK-110" value="" style="endArrow=classic;html=1;rounded=0;exitX=1;exitY=0.25;exitDx=0;exitDy=0;edgeStyle=orthogonalEdgeStyle;entryX=0;entryY=0.25;entryDx=0;entryDy=0;" edge="1" parent="1" source="Gj9VxU12owduN0ynIQGK-93" target="Gj9VxU12owduN0ynIQGK-94">
          <mxGeometry width="50" height="50" relative="1" as="geometry">
            <mxPoint x="453.57000000000016" y="-548.75" as="sourcePoint" />
            <mxPoint x="305.57000000000016" y="-498.75" as="targetPoint" />
          </mxGeometry>
        </mxCell>
        <mxCell id="Gj9VxU12owduN0ynIQGK-111" value="&lt;font color=&quot;#00994d&quot;&gt;MARK AS&lt;br&gt;RECONCILED&lt;br&gt;&lt;/font&gt;" style="edgeLabel;html=1;align=center;verticalAlign=middle;resizable=0;points=[];" vertex="1" connectable="0" parent="Gj9VxU12owduN0ynIQGK-110">
          <mxGeometry x="-0.0766" relative="1" as="geometry">
            <mxPoint x="5" y="-4" as="offset" />
          </mxGeometry>
        </mxCell>
        <mxCell id="Gj9VxU12owduN0ynIQGK-97" style="edgeStyle=orthogonalEdgeStyle;rounded=0;orthogonalLoop=1;jettySize=auto;html=1;exitX=1;exitY=0.5;exitDx=0;exitDy=0;entryX=0;entryY=0.5;entryDx=0;entryDy=0;" edge="1" parent="1" source="Gj9VxU12owduN0ynIQGK-99" target="Gj9VxU12owduN0ynIQGK-109">
          <mxGeometry relative="1" as="geometry" />
        </mxCell>
        <mxCell id="Gj9VxU12owduN0ynIQGK-98" value="YES" style="edgeLabel;html=1;align=center;verticalAlign=middle;resizable=0;points=[];" vertex="1" connectable="0" parent="Gj9VxU12owduN0ynIQGK-97">
          <mxGeometry x="-0.2222" y="-2" relative="1" as="geometry">
            <mxPoint x="-10" y="-2" as="offset" />
          </mxGeometry>
        </mxCell>
        <mxCell id="Gj9VxU12owduN0ynIQGK-112" value="" style="endArrow=classic;html=1;rounded=0;edgeStyle=orthogonalEdgeStyle;entryX=1;entryY=0.75;entryDx=0;entryDy=0;exitX=0;exitY=0.75;exitDx=0;exitDy=0;" edge="1" parent="1" source="Gj9VxU12owduN0ynIQGK-94" target="Gj9VxU12owduN0ynIQGK-93">
          <mxGeometry width="50" height="50" relative="1" as="geometry">
            <mxPoint x="590.5" y="-450" as="sourcePoint" />
            <mxPoint x="730.5700000000002" y="-524.75" as="targetPoint" />
          </mxGeometry>
        </mxCell>
        <mxCell id="Gj9VxU12owduN0ynIQGK-113" value="&lt;font color=&quot;#00994d&quot;&gt;MARK AS&lt;br&gt;READY TO KEY&lt;br&gt;&lt;/font&gt;" style="edgeLabel;html=1;align=center;verticalAlign=middle;resizable=0;points=[];" vertex="1" connectable="0" parent="Gj9VxU12owduN0ynIQGK-112">
          <mxGeometry x="-0.0766" relative="1" as="geometry">
            <mxPoint x="-3" y="-1" as="offset" />
          </mxGeometry>
        </mxCell>
        <mxCell id="Gj9VxU12owduN0ynIQGK-116" value="" style="group" vertex="1" connectable="0" parent="1">
          <mxGeometry x="10" y="-180" width="310" height="110" as="geometry" />
        </mxCell>
        <mxCell id="Gj9VxU12owduN0ynIQGK-117" value="KEY" style="rounded=0;whiteSpace=wrap;html=1;align=left;verticalAlign=top;spacingLeft=5;fontStyle=5" vertex="1" parent="Gj9VxU12owduN0ynIQGK-116">
          <mxGeometry width="310" height="110" as="geometry" />
        </mxCell>
        <mxCell id="Gj9VxU12owduN0ynIQGK-118" value="" style="group" vertex="1" connectable="0" parent="Gj9VxU12owduN0ynIQGK-116">
          <mxGeometry x="10" y="30" width="85" height="30" as="geometry" />
        </mxCell>
        <mxCell id="Gj9VxU12owduN0ynIQGK-119" value="" style="ellipse;fillColor=strokeColor;html=1;" vertex="1" parent="Gj9VxU12owduN0ynIQGK-118">
          <mxGeometry width="30" height="30" as="geometry" />
        </mxCell>
        <mxCell id="Gj9VxU12owduN0ynIQGK-120" value="START" style="text;html=1;strokeColor=none;fillColor=none;align=center;verticalAlign=middle;whiteSpace=wrap;rounded=0;" vertex="1" parent="Gj9VxU12owduN0ynIQGK-118">
          <mxGeometry x="35" width="50" height="30" as="geometry" />
        </mxCell>
        <mxCell id="Gj9VxU12owduN0ynIQGK-121" value="&lt;font color=&quot;#6600cc&quot;&gt;STATE&lt;/font&gt;" style="html=1;align=center;verticalAlign=middle;rounded=1;absoluteArcSize=1;arcSize=10;dashed=0;whiteSpace=wrap;" vertex="1" parent="Gj9VxU12owduN0ynIQGK-116">
          <mxGeometry x="170" y="21.25" width="120" height="67.5" as="geometry" />
        </mxCell>
        <mxCell id="Gj9VxU12owduN0ynIQGK-122" value="" style="endArrow=classic;html=1;rounded=0;exitX=1;exitY=0.5;exitDx=0;exitDy=0;edgeStyle=orthogonalEdgeStyle;" edge="1" parent="Gj9VxU12owduN0ynIQGK-116">
          <mxGeometry width="50" height="50" relative="1" as="geometry">
            <mxPoint x="10" y="87.5" as="sourcePoint" />
            <mxPoint x="130" y="87.5" as="targetPoint" />
          </mxGeometry>
        </mxCell>
        <mxCell id="Gj9VxU12owduN0ynIQGK-123" value="&lt;font color=&quot;#00994d&quot;&gt;EVENT&lt;/font&gt;" style="edgeLabel;html=1;align=center;verticalAlign=middle;resizable=0;points=[];" vertex="1" connectable="0" parent="Gj9VxU12owduN0ynIQGK-122">
          <mxGeometry x="-0.0846" y="3" relative="1" as="geometry">
            <mxPoint x="3" y="3" as="offset" />
          </mxGeometry>
        </mxCell>
      </root>
    </mxGraphModel>
  </diagram>
</mxfile>
